<svg width="36" height="36" fill="none" xmlns="http://www.w3.org/2000/svg" stroke="#11131E"><path fill-rule="evenodd" clip-rule="evenodd" d="M12.913.802c2.493 2.492 5.011 5.61 7.803 7.755 1.248.957 2.66 1.415 4.525.439.022.012.024-.141 0 0l-4.156 4.155a3.45 3.45 0 01-4.866 0L8.667 5.598C5.638 2.57 10.292-1.82 12.913.802zM24.19.544a3.737 3.737 0 10-.004 7.474A3.737 3.737 0 0024.19.544zm-1.497 34.259c-2.493-2.492-5.01-5.612-7.805-7.753-1.246-.958-2.657-1.417-4.523-.44-.021 0-.023.143 0 0l4.156-4.156a3.449 3.449 0 014.864 0l7.563 7.553c3.028 3.03-1.626 7.418-4.247 4.796h-.008zm-11.278.258a3.735 3.735 0 100-7.47 3.735 3.735 0 000 7.47zM34.803 12.92c-2.494 2.492-5.61 5.01-7.755 7.8-.958 1.248-1.415 2.66-.438 4.525-.01.021.142.023 0 0l-4.158-4.156a3.453 3.453 0 010-4.864l7.555-7.553c3.028-3.03 7.418 1.626 4.796 4.247zm.258 11.275a3.736 3.736 0 10-.283 1.426 3.74 3.74 0 00.283-1.43v.004zM.802 22.692c2.492-2.492 5.61-5.01 7.753-7.803.959-1.248 1.417-2.659.44-4.524.01-.022-.142-.022 0 0l4.156 4.155a3.451 3.451 0 010 4.866l-7.553 7.553c-3.03 3.028-7.417-1.625-4.796-4.247zM.554 11.416a3.735 3.735 0 107.47-.004 3.735 3.735 0 00-7.47.004z" fill="#fff"/></svg>